<svg width="32" height="32" viewBox="0 0 32 32" fill="none" xmlns="http://www.w3.org/2000/svg">
<rect width="32" height="32" rx="8" fill="url(#paint0_linear_358_9)"/>
<path d="M6 9.0625C6 8.4757 6.4757 8 7.0625 8H8.9242C9.32743 8 9.71277 8.16653 9.98908 8.46022L22.7743 22.0494C23.0585 22.3514 23.5656 22.1504 23.5656 21.7357V9.21718C23.5656 8.54495 24.1106 8 24.7828 8C25.455 8 26 8.54495 26 9.21718V23.9375C26 24.5243 25.5243 25 24.9375 25H22.9777C22.5609 25 22.1626 24.8278 21.8771 24.5242L9.21912 11.0678C8.93736 10.7683 8.43437 10.9677 8.43437 11.3789V23.7828C8.43437 24.455 7.88942 25 7.21718 25C6.54495 25 6 24.455 6 23.7828V9.0625Z" fill="white"/>
<defs>
<linearGradient id="paint0_linear_358_9" x1="32" y1="32" x2="2" y2="-2.23517e-07" gradientUnits="userSpaceOnUse">
<stop stop-color="#2691FF"/>
<stop offset="1" stop-color="#58B2FF"/>
</linearGradient>
</defs>
</svg>
